<svg xmlns="http://www.w3.org/2000/svg" xmlns:xlink="http://www.w3.org/1999/xlink" version="1.1" x="0px" y="0px" viewBox="0 0 50 62.5" enable-background="new 0 0 50 50" xml:space="preserve"><g><path d="M34.07105,40.17294c0.1017-0.6487,0.2297-0.9925,0.0887-1.5108c-0.2993-1.1049-1.56959-1.8986-3.2293-0.7793   c-0.6549-0.3435-0.9979-0.5862-1.6124-0.551c-0.9406,0.0547-1.6575,0.802-1.714,1.6768c-0.02389,0.3698,0.137,0.981,0.1609,1.1516   c-0.055,0.1001-2.1315,1.6766-0.49079,3.1611c0.57689,0.5232,1.28819,0.4807,1.68409,0.5518   c0.1907,0.2537,0.48291,1.6806,1.957,1.6806c1.3906,0,1.7072-1.2355,1.9361-1.6689c0.952-0.1629,1.9317-0.2011,2.2361-1.4951   C35.36475,41.21114,34.59635,40.68704,34.07105,40.17294z M28.89475,41.84964c-0.0034,0-0.0068-0.0009-0.0097-0.0009   c0.1686-0.155,0.28011-0.2371,0.39011-0.3662c0.67869-0.6983,0.49509-1.542,0.39359-2.003l0.3769,0.1963   c0.7497,0.4261,1.4299,0.2126,2.1162-0.1992c0.0415,0.3963-0.6223,1.1101,0.7798,2.373c-0.305,0.1205-1.3262-0.1501-2.0283,1.461   C30.68945,43.10494,30.73655,42.03984,28.89475,41.84964z"/><path d="M41.34205,23.53814c0.349-1.6512-0.5694-2.5898-1.7075-2.5898c-0.6178,0-0.9767,0.2855-1.4859,0.5576   c-0.1487-0.0339-1.7103-1.319-2.89549,0.1006c-0.71761,0.8628-0.27891,1.7714-0.26021,2.1865   c-0.1771,0.2537-1.4502,0.9747-0.9854,2.3838c0.448,1.3569,1.9231,1.2366,2.1988,1.3301c0.1933,0.364,0.5546,1.6689,1.935,1.6689   c1.3826,0,1.7051-1.2089,1.9463-1.6689c0.2998-0.1019,1.73551,0.0613,2.1948-1.3301c0.4518-1.3695-0.8386-2.172-0.9887-2.3867   C41.30395,23.71594,41.32595,23.61334,41.34205,23.53814z M38.15455,26.92484c-0.00239,0.0059-0.00539,0.0127-0.0078,0.0186   c-0.7282-1.7035-1.7484-1.3199-2.0117-1.4688l0.3349-0.3291c0.8246-0.8264,0.43721-1.8957,0.4385-2.0351   c0.2229,0.0983,0.5986,0.4219,1.2212,0.4219h0.0002h0.00031c0.39259,0,0.717-0.133,0.97879-0.2724   c0.1001-0.0534,0.25421-0.1437,0.2814-0.1612c-0.0014,0.0088-0.0034,0.0166-0.0053,0.0254c-0.3798,1.796,0.6395,2.068,0.77,2.3505   C39.20516,25.66414,38.71255,25.64234,38.15455,26.92484z"/><path d="M20.48265,31.05674c0.4054,0.7745,0.6828,1.6699,1.9429,1.6699c1.1527,0,1.47561-0.7605,1.9541-1.6719   c0.291-0.0986,1.7283,0.0679,2.18851-1.3261c0.386-1.1721-0.35781-1.7426-0.98831-2.3731c0.01631-0.403,0.461-1.3341-0.2695-2.2012   c-0.8523-1.0111-1.864-0.701-2.8743-0.0909c-0.1822-0.0422-1.7163-1.3085-2.8958,0.0919   c-0.7492,0.8884-0.2866,1.765-0.26909,2.1954c-0.173,0.2482-1.44511,0.9776-0.97991,2.3827   C18.73855,31.08434,20.20916,30.96434,20.48265,31.05674z M21.25805,27.10454l-0.0766-0.4414   c0.3496,0.0726,0.8885,0.9127,2.48871-0.0029c0.05249,0.2632-0.58921,1.1597,0.75249,2.3476   c0.0068,0.0059,0.0132,0.0118,0.01951,0.0176c-0.31931,0.1422-1.26451-0.2068-2.01271,1.4766   c-0.77429-1.6894-1.6816-1.3294-2.00929-1.4766C20.79016,28.63874,21.45465,28.12684,21.25805,27.10454z"/><path d="M4.57205,38.95224c-0.23589,0.3408-0.2363,0.793-0.0015,1.1348c0.2417,0.3515,5.9947,8.5957,13.374,8.6064   c0.0005,0,0.001,0,0.0015,0c2.2895,0,4.6393-0.7929,6.99611-2.3416c1.75479,1.6895,4.09519,2.6473,6.55519,2.6473   c5.21581,0,9.459-4.2432,9.459-9.459c0-1.7046-0.472-3.3761-1.34019-4.8361c2.93219-1.1371,5.09109-3.6383,5.77179-6.8036   c0.7174-3.3352-0.3716-6.6604-2.8271-8.9132c0.43931-0.7103,0.7789-1.4225,1.0268-2.1581   c2.35451-6.9873-3.5854-15.0849-3.8393-15.4257c-0.2481-0.334-0.6758-0.4766-1.07619-0.3653   c-0.40971,0.1172-10.06351,2.9385-12.41851,9.9268c-1.141,3.3779-0.32749,7.0209,0.8088,9.8761   c-0.90729-0.2814-1.8491-0.4435-2.8-0.4435c-5.2158,0-9.4595,4.248-9.4595,9.4697c0,0.3375,0.019,0.6726,0.0545,1.0025   C9.01275,32.62264,4.75916,38.68124,4.57205,38.95224z M31.49735,46.99914c-4.1464,0-7.4697-3.3812-7.4697-7.459   c0-4.6517,4.2858-8.0759,8.4653-7.3848c3.6001,0.4569,6.4634,3.5859,6.4634,7.3848   C38.95635,43.65344,35.61016,46.99914,31.49735,46.99914z M38.35525,33.02934c-2.0932-1.9969-4.65009-3.408-8.3154-2.8353   c-0.8629-1.3488-1.3589-2.6514-1.3589-4.2867c0-4.1308,3.3479-7.459,7.459-7.459   C44.76475,18.44834,46.38565,30.58464,38.35525,33.02934z M28.14865,11.60454c1.691-5.0185,8.2598-7.6767,10.39651-8.4218   c1.24319,1.8896,4.83839,7.9882,3.147,13.0078c-0.17971,0.5332-0.42091,1.0556-0.731,1.58   c-3.98071-2.3709-9.17971-1.4613-12.12451,2.125C27.87775,17.41614,27.22045,14.35164,28.14865,11.60454z M24.26245,22.39754   c1.0025,0,1.9678,0.1934,2.8809,0.5771c-0.0231,0.1101-0.4624,1.3233-0.4624,2.9327c0,1.5731,0.4389,3.338,1.3344,4.8418   c-0.1194,0.0866-4.3984,1.6735-5.6537,6.3103c-0.0439-0.0116-0.0903-0.0166-0.134-0.0288   C13.94735,34.68454,15.69325,22.39754,24.26245,22.39754z M15.27765,32.82334c0.9828,3.0188,3.5359,5.4622,6.7617,6.2334   c-0.1009,2.0416,0.47481,4.0198,1.5393,5.646c0.0242,0.037,0.0409,0.0781,0.0657,0.1147c-1.9551,1.2451-3.8677,1.876-5.6968,1.876   c-5.3008-0.0078-9.918-5.3848-11.3052-7.1719C7.79175,38.04894,11.15165,34.13094,15.27765,32.82334z"/></g><text x="0" y="65" fill="#000000" font-size="5px" font-weight="bold" font-family="'Helvetica Neue', Helvetica, Arial-Unicode, Arial, Sans-serif">Created by Vectors Point</text><text x="0" y="70" fill="#000000" font-size="5px" font-weight="bold" font-family="'Helvetica Neue', Helvetica, Arial-Unicode, Arial, Sans-serif">from the Noun Project</text></svg>