<svg xmlns="http://www.w3.org/2000/svg" xmlns:xlink="http://www.w3.org/1999/xlink" version="1.1" x="0px" y="0px" viewBox="0 0 100 125" style="enable-background:new 0 0 100 100;" xml:space="preserve"><g><path d="M40.7,45.2c0.2,0,0.3,0,0.5,0c1.5,0,4-2,5-2.8c0.5-0.4,0.6-1.2,0.2-1.7c-0.4-0.5-1.2-0.6-1.7-0.2c-1.4,1.2-3,2.2-3.5,2.3   c-0.2,0-0.4,0-0.5,0c-1,0-1.8,0-2.8-0.7c-0.6-0.4-1.3-0.2-1.7,0.4c-0.4,0.6-0.2,1.3,0.4,1.7c1.4,0.9,2.7,1.1,3.7,1.1   C40.4,45.2,40.6,45.2,40.7,45.2z"/><path d="M96,79.2c-0.4-1.6-0.9-3.7-1.3-5.7c-0.7-2.8-1.3-5.4-1.6-6.9v-0.1C91.5,60,78.3,55,62.3,55c-1.8,0-5,0.3-7.2,0.4   c-0.3-3.9-0.7-8.7-0.7-10.1c0-0.6,0.5-1.4,1.1-2.3c1.1-1.8,2.7-4.3,3.1-8.3c0.2-1.6,0-3.4-0.3-5c1.2-0.9,2-1.2,2.3-1.3   c-0.3,1.1-0.6,3.4,0.2,7.1c0.2,0.8,1.6,7.8,4.6,8h0.1c0.6,0,1.6-0.3,2.2-2c0.9-2.5,0.8-5.2,0.7-8.8c-0.1-1.7-0.1-3.7-0.1-5.9   c0-4.1-2.4-8.2-6.6-11.1c-4.6-3.2-10.5-4.3-15-2.8c-4.7-2.6-9.5-3-13.4-3.2c-3-0.3-5.7-0.5-7.3-1.7c-4.8-3.5-13.2-5.4-13.5-5.4   c-0.2,0-0.4,0-0.5,0C4.1,4.3,2.8,16.9,4.4,24.9c0.6,2.8,2,5.3,4.3,7.3c0.5,0.4,1,0.5,1.3,0.5c0,0.1,0.1,0.2,0.1,0.3   c2.5,9.3,6,10.9,8.6,12c0.9,0.4,1.6,0.7,2.1,1.2c0.7,0.7,1.3,1.3,1.9,1.9l0.1,0.1l7.3,9.8c0.2,0.4,1.5,2.4,3.5,4.7   c-1.1,1.3-2,3.6-2.1,4.7l-3.2,9.4c0,0,0,0,0,0.1c-0.7,2.7,0,5.5,1.9,7.5l1.3,1.4c0.3,0.3,0.8,0.5,1.3,0.3c0.4-0.1,0.8-0.5,0.8-1   c0-0.2,0.4-2,2.8-1.7c2.8,0.4,6.8,6.2,7.7,10.3c0.1,0.4,0.4,0.8,0.8,0.9c0.6,0.2,9.4,2.8,20.2,2.8c8.8,0,18.9-1.7,27.1-7.9   C95.4,87.2,96.9,83.1,96,79.2z M62.3,61.7c7.1,0,14.1,1.1,19,3c3.5,1.4,4.8,2.7,5.1,3.2c-0.3,0.4-1.4,1.6-4.6,2.9   c0.1-0.7,0-1.3-0.3-2c-0.5-1-1.4-1.9-2.4-2c-0.5-0.1-1.3-0.5-1.9-0.8c-0.2-0.1-0.4-0.3-0.6-0.3c-0.3-0.2-0.7-0.3-1.1-0.3   c-0.5,0-1,0.1-1.5,0.4c-0.9-1-2.3-2-2.8-2.2c-1-0.4-3.7,0.1-5.2,1.1c-1-0.7-2.2-1-2.9-1.2c-0.2,0-0.3-0.1-0.4-0.1   c-1.9-0.6-3,1.3-3.5,2.2c-0.1,0.2-0.2,0.3-0.3,0.4c-0.2,0.3-0.7,0.9,0.1,3c-0.2,0-0.5,0-0.7,0.1c-0.1-0.3-0.1-0.7-0.3-1   c-0.6-1.4-2-2.7-3.4-3.2c0.5-0.9,0.9-1.9,1.1-2.7C57.6,61.9,60.7,61.7,62.3,61.7z M38.1,67.8c0-0.1-0.1-0.2-0.1-0.3   c-0.1-0.2-0.1-0.4-0.2-0.6c1.8,1.4,4.1,2.5,6.8,2.8c-0.2,0.2-0.4,0.4-0.6,0.6l-1.3,0.4c-0.1,0-0.2,0.1-0.3,0.1   C39.1,69.3,38.2,68,38.1,67.8z M48.4,63L48.4,63c0.4-0.4,1.7-0.5,2.8-0.5c-0.1,0.1-0.1,0.2-0.3,0.4c-1.2,1.2-3.2,1.8-3.7,1.4l0,0   C47.3,64.1,47.6,63.7,48.4,63z M53,67L53,67c0.8,0,2.2,0.9,2.7,2c0.2,0.5,0.1,0.7,0,0.8c-1.4,0.6-2.2,1.5-2.5,2.5   c0,0.1-0.1,0.2-0.1,0.4c-0.6-1.1-1.4-2.5-1.7-3.1c-0.1-0.3-0.4-0.5-0.7-0.6c-0.1,0-0.1-0.1-0.2-0.1C51.5,68.3,52.3,67.7,53,67z    M46.5,71.3c0.1-0.1,0.3-0.3,0.5-0.5c0.2,0,0.4,0,0.6-0.1c0.9-0.5,1.5,0.1,1.6,0.2s0.1,0.1,0.2,0.2c0.3,0.6,0.7,1.4,1.1,2.1   c-1.7-0.3-3.3-0.7-4.7-1.1C46.1,71.8,46.3,71.6,46.5,71.3z M55.8,73.8c0-0.1-0.1-0.2-0.2-0.4c0,0-0.1-0.2-0.1-0.4   c0.1-0.2,0.5-0.9,2.5-1.5c2.7-0.8,4.2,1.3,4.8,2.6c-0.2,0-0.4,0-0.6,0C60.1,74.1,57.9,74,55.8,73.8z M61,67.2   c0.1-0.1,0.1-0.2,0.2-0.4c0.2-0.3,0.6-0.9,0.8-1.1c0.1,0,0.3,0.1,0.4,0.1c2.2,0.6,3.3,1.2,3,3.2l0,0c-0.1,0.1-0.2,0.1-0.2,0.2   c-0.8,0.2-1.3,1-1.6,1.8c-0.5-0.5-1.1-1-1.7-1.4C61.5,68.7,61.1,67.6,61,67.2z M67.9,66.3c0.8-0.3,1.9-0.6,2.4-0.5   c0.5,0.3,2,1.6,2.2,2c0,0,0,0.1,0.1,0.1l0,0c-0.1-0.1-0.3-0.2-0.4-0.2c-1.1-0.5-2.9-0.9-4.3-0.5v-0.1l0,0   C68,66.8,68,66.6,67.9,66.3z M79,71.3c0,0.1-0.1,0.1-0.1,0.2c-0.8,0.4-1.6,0.4-2.4,0.1c-1-0.4-1.7-1.3-1.9-1.6c0-0.2,0.1-0.9,0.4-2   c0-0.1,0.1-0.2,0.1-0.1c0.2,0,0.2,0,0.2,0c0.1,0.1,0.3,0.2,0.5,0.3c0.7,0.4,1.7,1,2.7,1.1c0.1,0,0.4,0.2,0.6,0.6   C79.4,70.3,79.4,70.8,79,71.3z M66,74c-0.1-0.1-0.1-0.2-0.2-0.3c-0.1-0.5,0.1-1.8,0.4-2.3c0.6-0.2,1.1-0.7,1.5-1.1   c0.3-0.3,0.5-0.5,0.8-0.7s1.5-0.1,2.5,0.3c0.1,0.6-0.1,2.2-0.5,3.7C69,73.8,67.5,73.9,66,74z M73.3,72.2c0.3,0.3,0.6,0.6,0.9,0.9   c-0.4,0.1-0.8,0.1-1.1,0.2C73.1,72.9,73.2,72.5,73.3,72.2z M60.4,17.7c3.5,2.5,5.5,5.8,5.5,9.1c0,2.3,0.1,4.3,0.1,6   c0.1,3.5,0.2,5.9-0.5,7.9c0,0.1,0,0.1-0.1,0.2c-0.6-0.7-1.6-2.8-2.2-5.8c-0.9-4.3-0.1-6.3-0.1-6.3c0.2-0.4,0.1-0.8-0.1-1.2   l-0.5-0.7c0-0.1-0.1-0.1-0.2-0.2c-1-1-2.6-0.8-4.7,0.6c-1.1-3.7-2.7-6.6-2.8-6.8c0,0,0-0.1-0.1-0.1c-1.6-2.4-3.4-4.2-5.2-5.6   C53.1,14.3,57.1,15.3,60.4,17.7z M32.1,56.6l-2.8-3.8c1.7,0.8,3.1,0.9,4.2,0.4c2.6-1.2,1.8-5.8,0.2-13.2c-0.6-2.5-1.1-4.9-1.1-6.1   c0-3.2,2.4-5.1,2.5-5.2c0.5-0.4,0.6-1.2,0.2-1.7c-0.4-0.5-1.2-0.6-1.7-0.2c-0.1,0.1-3.4,2.7-3.4,7.1c0,1.5,0.5,3.9,1.1,6.6   c0.7,3.1,2.1,9.6,1.2,10.5c-0.1,0.1-0.3,0.1-0.5,0.1c-0.9,0-3.5-0.6-9.5-6.7c-0.9-0.9-1.9-1.3-2.9-1.7c-2.4-1-5-2.2-7.2-10.4   c-0.4-1.4-1-2-2.2-2.1l0,0c-1.8-1.6-3-3.6-3.4-5.8C5.4,17.4,6.5,6.6,12.2,5c1.5,0.3,8.4,2.1,12.3,5c2.2,1.6,5.2,1.8,8.7,2.1   c6,0.4,13.5,1,19.6,9.6c0.3,0.6,4,7.4,3.4,12.9c-0.4,3.4-1.7,5.5-2.7,7.2C52.7,43,52,44.1,52,45.3c0,1.8,0.8,12.7,1.3,15.5   c-0.2-0.2-0.3-0.4-0.4-0.4c-0.2-0.2-0.4-0.2-0.7-0.3c-0.6,0-3.7-0.2-5.2,1c-1.1,0.9-2.2,1.9-2.2,3.2c0,0.5,0.2,1.2,1,1.9   c1,0.8,2.5,0.8,3.9,0.3c-0.6,0.3-1.3,0.6-2.1,0.7c-0.5,0.1-1,0.1-1.4,0.1c-4.1,0-7-2.3-9.2-4.6C34.1,59.9,32.2,56.8,32.1,56.6   C32.1,56.7,32.1,56.7,32.1,56.6z M90.7,87.6c-15.8,11.9-40.2,6.1-44.5,4.9c-1.3-4.5-5.5-10.9-9.6-11.4c-2.4-0.3-3.8,0.7-4.6,1.7   l-0.1-0.1c-1.3-1.4-1.8-3.4-1.3-5.2l3.2-9.5c0-0.1,0.1-0.2,0.1-0.3c0-0.6,0.7-2.3,1.4-3.2c0.2,0.2,0.3,0.3,0.5,0.5   c-0.4,0.9-0.4,2,0,3.2c0.2,1.6,2.8,3.6,6.7,5.2c5.2,2,12.4,3.2,19.9,3.2c7.4,0,14.7-1.2,19.9-3.2c4.1-1.6,6.8-3.7,6.8-5.4   c0-1.7-2.6-3.8-6.8-5.4c-5.2-2-12.4-3.2-19.9-3.2c-1.6,0-4.8,0.2-6.8,0.3c-0.1-0.5-0.1-1.1-0.2-1.8c2-0.2,5.2-0.4,7-0.4   c16.2,0,27.4,5.1,28.4,9.7v0.1c0.3,1.5,0.9,4.1,1.6,6.8c0.5,2,1,4,1.3,5.6C94.3,82.7,93.1,85.8,90.7,87.6z"/></g><text x="0" y="115" fill="#000000" font-size="5px" font-weight="bold" font-family="'Helvetica Neue', Helvetica, Arial-Unicode, Arial, Sans-serif">Created by parkjisun</text><text x="0" y="120" fill="#000000" font-size="5px" font-weight="bold" font-family="'Helvetica Neue', Helvetica, Arial-Unicode, Arial, Sans-serif">from the Noun Project</text></svg>