<svg xmlns:dc="http://purl.org/dc/elements/1.1/" xmlns:cc="http://creativecommons.org/ns#" xmlns:rdf="http://www.w3.org/1999/02/22-rdf-syntax-ns#" xmlns:svg="http://www.w3.org/2000/svg" xmlns="http://www.w3.org/2000/svg" xmlns:sodipodi="http://sodipodi.sourceforge.net/DTD/sodipodi-0.dtd" xmlns:inkscape="http://www.inkscape.org/namespaces/inkscape" version="1.1" x="0px" y="0px" viewBox="0 0 100 125"><g transform="translate(0,-952.36218)"><path style="text-indent:0;text-transform:none;direction:ltr;block-progression:tb;baseline-shift:baseline;color:#000000;enable-background:accumulate;" d="m 49.998513,974.36218 c -10.022112,0 -19.090377,1.18774 -25.905374,3.15138 -6.814998,1.96365 -11.749603,4.86851 -11.749603,8.47721 0,0.49704 0.102336,0.97957 0.28124,1.44963 l -6.5935271,30.3793 a 2.0001322,2.0170839 0 0 0 -0.031249,0.4412 c 0,2.5368 1.915709,4.3119 4.3123541,5.6725 2.396645,1.3606 5.619315,2.4642 9.530928,3.4035 7.823227,1.8784 18.42897,3.0253 30.155231,3.0253 11.726261,0 22.332005,-1.1469 30.155231,-3.0253 3.911613,-0.9393 7.134283,-2.0429 9.530928,-3.4035 2.396645,-1.3606 4.312355,-3.1357 4.312355,-5.6725 a 2.0001322,2.0170839 0 0 0 -0.03125,-0.4412 L 87.37225,987.4404 c 0.178904,-0.47006 0.281241,-0.95259 0.281241,-1.44963 0,-3.6087 -4.903356,-6.51356 -11.718354,-8.47721 -6.814998,-1.96364 -15.914511,-3.15138 -25.936624,-3.15138 z m 0,3.08835 c 9.307202,0 17.709622,1.08702 23.561704,2.77321 5.852082,1.6862 8.780953,3.80625 8.780953,5.76703 0,1.29755 -1.30975,2.67094 -3.874869,3.93922 -0.534348,-1.04899 -1.420371,-1.96017 -2.437417,-2.67867 -1.646648,-1.16329 -3.799014,-2.09809 -6.374785,-2.86776 -5.151542,-1.53931 -12.039868,-2.42656 -19.655586,-2.42656 -7.615717,0 -14.504044,0.88725 -19.655586,2.42656 -2.575771,0.76967 -4.728137,1.70447 -6.374784,2.86776 -1.017047,0.7185 -1.90307,1.62968 -2.437418,2.67867 -2.565118,-1.26828 -3.874869,-2.64167 -3.874869,-3.93922 0,-1.96078 2.928871,-4.08083 8.780953,-5.76703 5.852083,-1.68619 14.254503,-2.77321 23.561704,-2.77321 z m 0,8.54024 c 7.295467,0 13.910418,0.88844 18.530624,2.26899 2.310103,0.69028 4.101517,1.50191 5.187325,2.26899 0.482664,0.34099 0.776893,0.63908 0.968717,0.88239 -0.372111,0.11899 -0.725676,0.2316 -1.124962,0.34665 -5.852082,1.68619 -14.254502,2.77321 -23.561704,2.77321 -9.307201,0 -17.709621,-1.08702 -23.561704,-2.77321 -0.399285,-0.11505 -0.75285,-0.22766 -1.124962,-0.34665 0.191825,-0.24331 0.486054,-0.5414 0.968718,-0.88239 1.085808,-0.76708 2.877221,-1.57871 5.187324,-2.26899 4.620206,-1.38055 11.235157,-2.26899 18.530624,-2.26899 z m -34.0301,5.0422 c 1.594715,1.03712 3.649624,1.97447 5.999797,2.77322 a 2.0001322,2.0170839 0 0 0 0.874971,0.28362 c 0.0095,0.003 0.02173,-0.003 0.03125,0 0.405854,0.12851 0.797707,0.25686 1.218709,0.37817 6.814997,1.96363 15.883262,3.15138 25.905374,3.15138 10.022113,0 19.121626,-1.18775 25.936624,-3.15138 0.425937,-0.12273 0.808284,-0.24807 1.218709,-0.37817 0.01923,-0.006 0.04331,0.006 0.0625,0 a 2.0001322,2.0170839 0 0 0 0.781223,-0.25211 2.0001322,2.0170839 0 0 0 0.03125,-0.0315 c 2.351778,-0.79904 4.404216,-1.73554 5.999797,-2.77322 l 5.9373,27.29092 c -0.03452,0.285 -0.470523,1.0698 -2.249924,2.0799 -1.853843,1.0524 -4.779829,2.1396 -8.468464,3.0253 -7.37727,1.7715 -17.780097,2.8993 -29.249012,2.8993 -11.468914,0 -21.871742,-1.1278 -29.249011,-2.8993 -3.688636,-0.8857 -6.614622,-1.9729 -8.468464,-3.0253 -1.779401,-1.0101 -2.215407,-1.7949 -2.249924,-2.0799 l 5.937299,-27.29092 z m 16.030708,10.08443 c -3.842185,0 -6.999763,3.1843 -6.999763,7.0591 0,1.0921 0.330303,2.0877 0.781224,3.0253 -0.447928,0.935 -0.781224,1.937 -0.781224,3.0253 0,3.8748 3.157578,7.0591 6.999763,7.0591 2.759247,0 5.11039,-1.6708 6.249789,-4.0338 l 23.499206,0 c 1.1394,2.363 3.490542,4.0338 6.249789,4.0338 3.842185,0 6.999764,-3.1843 6.999764,-7.0591 0,-1.0883 -0.333296,-2.0903 -0.781224,-3.0253 0.450921,-0.9376 0.781224,-1.9332 0.781224,-3.0253 0,-3.8748 -3.157579,-7.0591 -6.999764,-7.0591 -2.762118,0 -5.111849,1.6668 -6.249789,4.0338 l -23.499206,0 c -1.137939,-2.367 -3.487671,-4.0338 -6.249789,-4.0338 z m 0,4.0338 c 1.466183,0 2.659397,1.0249 2.937401,2.395 a 2.0001322,2.0170839 0 0 0 1.968684,1.6387 l 26.186615,0 a 2.0001322,2.0170839 0 0 0 1.968683,-1.6387 c 0.278005,-1.3701 1.471219,-2.395 2.937401,-2.395 1.680476,0 2.999899,1.3306 2.999899,3.0253 0,0.721 -0.208608,1.2862 -0.59373,1.7963 a 2.0001322,2.0170839 0 0 0 0,2.4265 c 0.385122,0.5101 0.59373,1.1068 0.59373,1.8278 0,1.6947 -1.319423,3.0253 -2.999899,3.0253 -1.466182,0 -2.659396,-1.0564 -2.937401,-2.4265 a 2.0001322,2.0170839 0 0 0 -1.968683,-1.6072 l -26.186615,0 a 2.0001322,2.0170839 0 0 0 -1.968684,1.6072 c -0.278004,1.3701 -1.471218,2.4265 -2.937401,2.4265 -1.680476,0 -2.999898,-1.3306 -2.999898,-3.0253 0,-0.721 0.208608,-1.3177 0.59373,-1.8278 a 2.0001322,2.0170839 0 0 0 0,-2.4265 c -0.385122,-0.5101 -0.59373,-1.0753 -0.59373,-1.7963 0,-1.6947 1.319422,-3.0253 2.999898,-3.0253 z" fill="#000000" fill-opacity="1" stroke="none" marker="none" visibility="visible" display="inline" overflow="visible"/></g><text x="0" y="115" fill="#000000" font-size="5px" font-weight="bold" font-family="'Helvetica Neue', Helvetica, Arial-Unicode, Arial, Sans-serif">Created by Jasfart</text><text x="0" y="120" fill="#000000" font-size="5px" font-weight="bold" font-family="'Helvetica Neue', Helvetica, Arial-Unicode, Arial, Sans-serif">from the Noun Project</text></svg>